<?xml version="1.0" encoding="UTF-8"?>
<svg version="1.1" xmlns="http://www.w3.org/2000/svg" width="512" height="512">
<path d="M0 0 C1.66380371 -0.00461396 3.32760335 -0.01097019 4.99139452 -0.01890898 C9.54444101 -0.03555747 14.09715075 -0.02737638 18.65019822 -0.0149641 C23.56780126 -0.00589756 28.48534722 -0.0198913 33.40293884 -0.03088379 C43.02901417 -0.04865646 52.65496465 -0.04483459 62.28104484 -0.03323323 C70.10538816 -0.02419426 77.92969653 -0.02297691 85.75404358 -0.02732849 C86.86827203 -0.02794142 87.98250048 -0.02855436 89.13049343 -0.02918586 C91.39413179 -0.03046478 93.65777014 -0.03176164 95.92140847 -0.03307623 C117.14018292 -0.04447836 138.35888821 -0.03137406 159.57765132 -0.00987476 C177.77848675 0.00799587 195.97922012 0.00489166 214.18005371 -0.0135498 C235.32366793 -0.03496297 256.46722155 -0.04337976 277.61084509 -0.03110075 C279.86608727 -0.02982657 282.12132946 -0.02856909 284.37657166 -0.02732849 C286.04094081 -0.02640284 286.04094081 -0.02640284 287.73893359 -0.02545848 C295.55253813 -0.02200693 303.36610418 -0.02782975 311.17970276 -0.0372467 C320.70380137 -0.048473 330.22776814 -0.0454133 339.75185168 -0.02412373 C344.60982304 -0.01362188 349.46757469 -0.0094768 354.32554436 -0.02272034 C358.77547255 -0.03466789 363.22497803 -0.02804279 367.67486805 -0.00681013 C369.28173085 -0.00235407 370.8886296 -0.00458788 372.49546915 -0.01431328 C382.35162192 -0.06937636 391.13481574 0.2752263 399.18640137 6.55090332 C400.08552246 7.61244629 400.08552246 7.61244629 401.00280762 8.69543457 C401.62026855 9.39023926 402.23772949 10.08504395 402.87390137 10.80090332 C408.19421606 19.31586425 407.96174096 28.20803668 407.8548584 37.93493652 C407.84913199 39.48327177 407.84486394 41.03161299 407.8419342 42.57995605 C407.83336575 45.89968576 407.81616225 49.2192171 407.79260635 52.53887367 C407.75696973 57.79789977 407.75080269 63.05670954 407.75033569 68.31584167 C407.74538956 83.26573713 407.71628902 98.21528758 407.62390137 113.16491699 C407.57305231 121.43297579 407.55455683 129.7004607 407.57148921 137.96866578 C407.5804482 143.18713291 407.55050883 148.40341203 407.4912293 153.62152636 C407.46388697 156.88047175 407.47465195 160.1384959 407.49581718 163.39745331 C407.49815111 164.89699495 407.48535337 166.39665721 407.45545769 167.89590263 C407.23844441 179.42485838 410.13459797 185.04041717 417.56530762 193.50793457 C419.17477956 196.03730443 420.5322757 198.61321557 421.81530762 201.32043457 C422.30088135 202.32046509 422.30088135 202.32046509 422.79626465 203.34069824 C429.80774334 218.17589718 432.87121724 232.85938286 432.90124512 249.25012207 C432.90790192 250.53548859 432.91455872 251.8208551 432.92141724 253.14517212 C432.93329872 255.84962325 432.93710744 258.55394752 432.93591309 261.25842285 C432.93571004 264.68631566 432.96303788 268.11337822 432.9974575 271.54107475 C433.02532565 274.86076592 433.02388167 278.18031602 433.02624512 281.50012207 C433.04061615 282.71094452 433.05498718 283.92176697 433.0697937 285.16928101 C432.99549217 299.23391593 428.86607005 312.17477651 419.00280762 322.44543457 C417.01426554 324.38628979 415.52075108 325.52840105 412.97155762 326.69934082 C409.49705691 329.31085678 409.31631944 332.44434749 408.62780762 336.50793457 C405.32053341 352.90541746 396.93641417 362.10280243 383.56530762 371.50793457 C382.97894531 371.92124023 382.39258301 372.3345459 381.78845215 372.76037598 C370.12013221 380.91531544 358.23801298 388.2825674 344.56530762 392.50793457 C345.96885498 392.52195312 345.96885498 392.52195312 347.40075684 392.53625488 C377.68177298 392.91621105 405.2169522 395.16513115 429.56530762 415.50793457 C430.23175293 416.02871582 430.89819824 416.54949707 431.58483887 417.08605957 C447.25959865 429.82373419 456.24661429 449.73341786 458.56530762 469.50793457 C458.70043649 471.85969674 458.78400618 474.21500141 458.81530762 476.57043457 C458.84108887 477.73703613 458.86687012 478.9036377 458.89343262 480.10559082 C458.44729107 484.73165377 457.0001103 487.95247803 453.84655762 491.37121582 C453.25874512 491.84945801 452.67093262 492.3277002 452.06530762 492.82043457 C451.47749512 493.31156738 450.88968262 493.8027002 450.28405762 494.30871582 C446.0802018 497.24186068 441.37318002 496.6531666 436.4752655 496.64837646 C435.53363503 496.65134759 434.59200455 496.65431871 433.62183982 496.65737987 C430.45284037 496.66608165 427.28387863 496.66757636 424.11486816 496.66906738 C421.84832681 496.67369449 419.58178624 496.678719 417.31524658 496.68411255 C411.14786298 496.69724845 404.98049027 496.70368377 398.81309485 496.70812321 C394.96214955 496.71105187 391.11120724 496.71515627 387.26026344 496.71962738 C376.59811205 496.73173745 365.9359643 496.74211922 355.27380657 496.74550247 C354.59140311 496.74572204 353.90899964 496.7459416 353.20591729 496.74616782 C352.17986339 496.74649524 352.17986339 496.74649524 351.13308114 496.74682927 C349.74696457 496.74727274 348.36084801 496.7477193 346.97473145 496.74816895 C345.94338898 496.74850109 345.94338898 496.74850109 344.89121131 496.74883994 C333.75036685 496.75278792 322.60958781 496.77024201 311.46876862 496.79352847 C300.03065254 496.81724335 288.59258398 496.8294464 277.15444022 496.83087039 C270.73233859 496.83191978 264.31032919 496.83785605 257.88825035 496.85569 C251.84805339 496.87213687 245.80801835 496.8743426 239.76780701 496.86555099 C237.5498289 496.86477882 235.3318422 496.86914698 233.11388588 496.87900925 C230.08783002 496.89167654 227.06235218 496.88588014 224.03630066 496.87542725 C223.15701501 496.88348365 222.27772936 496.89154006 221.37179869 496.89984059 C215.50104313 496.85235748 211.17374602 495.91404127 206.70202637 491.78918457 C206.22378418 491.20137207 205.74554199 490.61355957 205.25280762 490.00793457 C204.7616748 489.42012207 204.27054199 488.83230957 203.76452637 488.22668457 C199.50650314 482.12398027 201.09647668 471.95218073 202.06140137 464.86340332 C204.74813412 451.33866389 209.96282701 439.91165548 217.56530762 428.50793457 C215.65636719 428.51792732 215.65636719 428.51792732 213.7088623 428.52812195 C201.70300684 428.5889936 189.69718278 428.63393638 177.69120789 428.66337109 C171.51913002 428.67901258 165.34717695 428.70022346 159.1751709 428.73425293 C153.21645891 428.7669 147.25786681 428.784799 141.29907227 428.7925663 C139.02813836 428.79810017 136.75721086 428.80890645 134.48632812 428.82512474 C131.3002719 428.8469697 128.11470819 428.84989849 124.92858887 428.84851074 C123.99422501 428.85929657 123.05986115 428.8700824 122.09718323 428.88119507 C115.6043271 428.85068594 109.64177519 428.12906159 104.50671387 423.75402832 C104.0516748 423.15719238 103.59663574 422.56035645 103.12780762 421.94543457 C102.65472168 421.34602051 102.18163574 420.74660645 101.69421387 420.12902832 C98.43771546 415.45274168 99.04745672 410.002908 99.56530762 404.50793457 C101.98466038 399.49001773 105.56448072 396.00834802 110.56530762 393.50793457 C112.30574931 393.42343829 114.04940483 393.40070434 115.79187012 393.41027832 C116.82312012 393.41350098 117.85437012 393.41672363 118.91687012 393.42004395 C119.99710449 393.42842285 121.07733887 393.43680176 122.19030762 393.44543457 C123.82226074 393.45220215 123.82226074 393.45220215 125.48718262 393.45910645 C128.17994551 393.47091681 130.8725995 393.48738679 133.56530762 393.50793457 C133.82811523 392.65634766 134.09092285 391.80476074 134.36169434 390.92736816 C135.60988669 387.38128659 137.1299937 384.15246578 138.82312012 380.79699707 C139.28499222 379.87749771 139.28499222 379.87749771 139.75619507 378.93942261 C140.73045825 377.00199799 141.71027679 375.06744697 142.69030762 373.13293457 C143.35604292 371.81150669 144.02141115 370.48989381 144.68640137 369.16809082 C146.30846585 365.94588932 147.93552136 362.72623864 149.56530762 359.50793457 C148.28039397 359.51484802 148.28039397 359.51484802 146.96952248 359.52190113 C126.10307171 359.6324391 105.23667157 359.71511975 84.3699894 359.76699543 C74.2789011 359.79275051 64.18800854 359.82784944 54.0970459 359.88513184 C45.29927224 359.9350494 36.50164038 359.96724518 27.70372903 359.97837704 C23.04748181 359.98488167 18.39164015 360.00011294 13.73552322 360.03658485 C9.34747432 360.0706765 4.9599957 360.08096114 0.57182693 360.07347298 C-1.03333644 360.07484167 -2.63852009 360.08469569 -4.24356842 360.10396194 C-14.16996513 360.21720813 -22.42801425 359.64821701 -30.25453758 352.95058155 C-37.67328428 345.18791229 -37.87348081 335.6663291 -37.82237244 325.45838928 C-37.82775797 324.16326902 -37.83314351 322.86814875 -37.83869225 321.53378242 C-37.85309192 317.95905077 -37.84891945 314.38455074 -37.84152544 310.8098067 C-37.83678245 306.94673008 -37.84931355 303.08370276 -37.85954285 299.22064209 C-37.87671378 291.66056287 -37.87757445 284.10056682 -37.87232994 276.54047317 C-37.86828401 270.39421636 -37.86973682 264.24798408 -37.8750782 258.10172844 C-37.87582662 257.22604556 -37.87657505 256.35036269 -37.87734615 255.44814397 C-37.87887767 253.66904608 -37.88041601 251.8899482 -37.88196111 250.11085033 C-37.89567986 233.43783523 -37.89025275 216.76486709 -37.8787759 200.09185307 C-37.86884305 184.84783156 -37.88178621 169.60393141 -37.90571009 154.35992862 C-37.93010824 138.69535088 -37.93970727 123.03082965 -37.93305737 107.36623329 C-37.92956689 98.57653806 -37.93178599 89.78693617 -37.9493084 80.99725533 C-37.96403927 73.51528474 -37.96465421 66.03347324 -37.94723748 58.55150575 C-37.93873257 54.73652772 -37.93656527 50.92183377 -37.95188904 47.10687065 C-37.96831625 42.96583864 -37.95357226 38.8254903 -37.93589783 34.6844635 C-37.94550283 33.48630038 -37.95510784 32.28813727 -37.96500391 31.05366617 C-37.88700932 22.16413105 -36.4031269 14.40967765 -30.30969238 7.63293457 C-21.53002923 -0.20783903 -11.16018832 -0.06754705 0 0 Z M220.56530762 359.50793457 C222.09334889 364.0920584 223.66827038 367.94835168 225.82312012 372.21887207 C226.13103485 372.83187164 226.43894958 373.44487122 226.75619507 374.07644653 C227.73045825 376.01387115 228.71027679 377.94842217 229.69030762 379.88293457 C230.35604292 381.20436245 231.02141115 382.52597533 231.68640137 383.84777832 C233.30846585 387.06997982 234.93552136 390.2896305 236.56530762 393.50793457 C237.23586182 393.52251709 237.90641602 393.53709961 238.59729004 393.55212402 C241.64969584 393.62681757 244.70103346 393.72340756 247.75280762 393.82043457 C249.3354541 393.85427246 249.3354541 393.85427246 250.95007324 393.88879395 C252.48244629 393.94196777 252.48244629 393.94196777 254.04577637 393.99621582 C255.45186157 394.03549194 255.45186157 394.03549194 256.88635254 394.07556152 C259.56530762 394.50793457 259.56530762 394.50793457 261.93786621 396.1192627 C265.59168627 398.05040268 268.29525914 397.1539973 272.12390137 396.23840332 C281.96133845 394.19810622 291.61108181 393.95401654 301.62780762 393.82043457 C303.38108634 393.7871455 305.1343425 393.7526459 306.88757324 393.71691895 C311.11335637 393.63337259 315.33910022 393.56595957 319.56530762 393.50793457 C316.37680401 391.87418745 313.19458421 390.64190433 309.81530762 389.44543457 C296.43407676 384.30799772 270.1601218 372.69756294 263.56530762 359.50793457 C249.37530762 359.50793457 235.18530762 359.50793457 220.56530762 359.50793457 Z " fill="#314489" transform="translate(45.4346923828125,7.4920654296875)"/>
<path d="M0 0 C7.91412332 4.93914808 13.60136625 11.66020958 16.27905273 20.65332031 C16.70733451 22.75796139 16.80531824 24.64330436 16.7890625 26.7890625 C16.78583984 27.54316406 16.78261719 28.29726562 16.77929688 29.07421875 C16.77091797 29.85152344 16.76253906 30.62882812 16.75390625 31.4296875 C16.74939453 32.22246094 16.74488281 33.01523438 16.74023438 33.83203125 C16.7284919 35.78128258 16.71055771 37.73049488 16.69140625 39.6796875 C17.42746094 39.95425781 18.16351563 40.22882813 18.921875 40.51171875 C34.59415037 47.12104221 45.9670167 61.26089029 53.12890625 76.2421875 C53.44666016 76.90138184 53.76441406 77.56057617 54.09179688 78.23974609 C59.51985548 90.2310863 60.17202942 101.81418371 60.08251953 114.77246094 C60.06631671 117.57014821 60.08250097 120.36641673 60.1015625 123.1640625 C60.09958195 124.95833649 60.09574219 126.75260961 60.08984375 128.546875 C60.09591644 129.37508759 60.10198914 130.20330017 60.10824585 131.05661011 C60.02961971 137.55578447 58.60001091 141.68231053 54.00390625 146.4921875 C49.93532652 149.17898544 47.49628883 149.43115909 42.69140625 149.6796875 C42.61664063 150.4325 42.541875 151.1853125 42.46484375 151.9609375 C39.93767704 172.37648036 30.65032743 185.88113197 16.69140625 200.6796875 C16.088125 201.32421875 15.48484375 201.96875 14.86328125 202.6328125 C13.51966917 204.02860369 12.11235557 205.36271008 10.69140625 206.6796875 C10.03140625 206.6796875 9.37140625 206.6796875 8.69140625 206.6796875 C8.69140625 213.2796875 8.69140625 219.8796875 8.69140625 226.6796875 C11.99140625 226.6796875 15.29140625 226.6796875 18.69140625 226.6796875 C37.49263251 229.53176973 55.23942563 238.6407028 66.87109375 253.8984375 C72.33644424 262.24893009 76.81264012 271.80429158 76.73046875 281.88671875 C76.7248291 282.78495361 76.71918945 283.68318848 76.71337891 284.60864258 C76.70612793 285.2920874 76.69887695 285.97553223 76.69140625 286.6796875 C77.84200027 286.659702 77.84200027 286.659702 79.01583862 286.63931274 C86.28241671 286.51855814 93.54850113 286.42747377 100.81582451 286.36881447 C104.5511581 286.33764161 108.28565541 286.29543323 112.02050781 286.22705078 C115.63214326 286.16134621 119.24297992 286.12587613 122.85516739 286.11042404 C124.22582687 286.09942801 125.59644786 286.07795666 126.96676254 286.04530716 C135.1059875 285.85928068 140.81623319 286.3778353 147.54666138 291.17416382 C166.36831511 304.38619933 196.84279316 303.18880581 218.66162109 303.07080078 C222.18886966 303.05469908 225.71497293 303.07076715 229.2421875 303.08984375 C250.13910529 303.11059071 270.94968649 301.91984785 290.56640625 294.1171875 C291.61570312 293.70339844 292.665 293.28960937 293.74609375 292.86328125 C294.71804688 292.47269531 295.69 292.08210938 296.69140625 291.6796875 C297.64273437 291.29941406 298.5940625 290.91914063 299.57421875 290.52734375 C300.27289063 290.24761719 300.9715625 289.96789062 301.69140625 289.6796875 C301.13959319 302.39897864 296.81302766 312.93020749 288.25390625 322.3671875 C287.40828125 323.1303125 286.56265625 323.8934375 285.69140625 324.6796875 C284.74265625 325.5665625 283.79390625 326.4534375 282.81640625 327.3671875 C274.46484483 334.40198006 264.89462268 340.13347586 255.44140625 345.5546875 C254.82918213 345.91151611 254.21695801 346.26834473 253.58618164 346.63598633 C248.19782058 349.6565724 242.52572576 351.68373609 236.69140625 353.6796875 C238.09495361 353.69370605 238.09495361 353.69370605 239.52685547 353.70800781 C269.80787161 354.08796398 297.34305083 356.33688408 321.69140625 376.6796875 C322.35785156 377.20046875 323.02429688 377.72125 323.7109375 378.2578125 C339.38569728 390.99548711 348.37271292 410.90517078 350.69140625 430.6796875 C350.82653513 433.03144967 350.91010481 435.38675434 350.94140625 437.7421875 C350.9671875 438.90878906 350.99296875 440.07539063 351.01953125 441.27734375 C350.5733897 445.9034067 349.12620893 449.12423096 345.97265625 452.54296875 C345.38484375 453.02121094 344.79703125 453.49945313 344.19140625 453.9921875 C343.60359375 454.48332031 343.01578125 454.97445313 342.41015625 455.48046875 C338.20630043 458.4136136 333.49927865 457.82491953 328.60136414 457.82012939 C327.65973366 457.82310052 326.71810319 457.82607164 325.74793845 457.8291328 C322.578939 457.83783458 319.40997726 457.83932929 316.2409668 457.84082031 C313.97442544 457.84544742 311.70788487 457.85047193 309.44134521 457.85586548 C303.27396161 457.86900138 297.1065889 457.8754367 290.93919349 457.87987614 C287.08824818 457.8828048 283.23730588 457.8869092 279.38636208 457.89138031 C268.72421068 457.90349038 258.06206294 457.91387215 247.3999052 457.9172554 C246.71750174 457.91747497 246.03509828 457.91769453 245.33201592 457.91792075 C244.30596203 457.91824817 244.30596203 457.91824817 243.25917977 457.9185822 C241.87306321 457.91902567 240.48694664 457.91947223 239.10083008 457.91992188 C238.06948761 457.92025402 238.06948761 457.92025402 237.01730994 457.92059287 C225.87646549 457.92454085 214.73568644 457.94199494 203.59486725 457.9652814 C192.15675117 457.98899628 180.71868261 458.00119933 169.28053886 458.00262332 C162.85843722 458.0036727 156.43642782 458.00960898 150.01434898 458.02744293 C143.97415202 458.0438898 137.93411698 458.04609553 131.89390564 458.03730392 C129.67592753 458.03653175 127.45794083 458.04089991 125.23998451 458.05076218 C122.21392865 458.06342947 119.18845081 458.05763307 116.16239929 458.04718018 C115.28311364 458.05523658 114.403828 458.06329298 113.49789733 458.07159352 C107.62714176 458.02411041 103.29984465 457.0857942 98.828125 452.9609375 C98.34988281 452.373125 97.87164062 451.7853125 97.37890625 451.1796875 C96.88777344 450.591875 96.39664063 450.0040625 95.890625 449.3984375 C91.63260177 443.2957332 93.22257531 433.12393366 94.1875 426.03515625 C96.87423275 412.51041682 102.08892564 401.08340841 109.69140625 389.6796875 C107.78246582 389.68968025 107.78246582 389.68968025 105.83496094 389.69987488 C93.82910547 389.76074653 81.82328141 389.80568931 69.81730652 389.83512402 C63.64522865 389.85076551 57.47327558 389.87197639 51.30126953 389.90600586 C45.34255754 389.93865293 39.38396544 389.95655193 33.4251709 389.96431923 C31.15423699 389.9698531 28.88330949 389.98065938 26.61242676 389.99687767 C23.42637054 390.01872263 20.24080682 390.02165142 17.0546875 390.02026367 C16.12032364 390.0310495 15.18595978 390.04183533 14.22328186 390.052948 C7.73042573 390.02243887 1.76787382 389.30081452 -3.3671875 384.92578125 C-3.82222656 384.32894531 -4.27726563 383.73210937 -4.74609375 383.1171875 C-5.21917969 382.51777344 -5.69226563 381.91835938 -6.1796875 381.30078125 C-9.43618591 376.62449461 -8.82644465 371.17466093 -8.30859375 365.6796875 C-5.88924099 360.66177066 -2.30942065 357.18010095 2.69140625 354.6796875 C4.43184795 354.59519122 6.17550347 354.57245726 7.91796875 354.58203125 C8.94921875 354.58525391 9.98046875 354.58847656 11.04296875 354.59179688 C12.12320313 354.60017578 13.2034375 354.60855469 14.31640625 354.6171875 C15.94835937 354.62395508 15.94835937 354.62395508 17.61328125 354.63085938 C20.30604414 354.64266974 22.99869813 354.65913972 25.69140625 354.6796875 C25.95421387 353.82810059 26.21702148 352.97651367 26.48779297 352.09912109 C27.73598532 348.55303952 29.25609234 345.32421871 30.94921875 341.96875 C31.41109085 341.04925064 31.41109085 341.04925064 31.8822937 340.11117554 C32.85655688 338.17375092 33.83637542 336.2391999 34.81640625 334.3046875 C35.48214155 332.98325962 36.14750978 331.66164674 36.8125 330.33984375 C38.43456448 327.11764225 40.06161999 323.89799157 41.69140625 320.6796875 C40.40649261 320.68660095 40.40649261 320.68660095 39.09562111 320.69365406 C18.22917034 320.80419203 -2.63722979 320.88687268 -23.50391197 320.93874836 C-33.59500026 320.96450344 -43.68589283 320.99960237 -53.77685547 321.05688477 C-62.57462913 321.10680233 -71.37226099 321.13899811 -80.17017233 321.15012997 C-84.82641955 321.1566346 -89.48226121 321.17186587 -94.13837814 321.20833778 C-98.52642704 321.24242943 -102.91390567 321.25271407 -107.30207443 321.24522591 C-108.90723781 321.2465946 -110.51242146 321.25644862 -112.11746979 321.27571487 C-122.05569941 321.38909606 -130.45738366 320.86396511 -138.20241356 314.00172901 C-145.91935072 306.14301214 -145.30859375 297.52035543 -145.30859375 286.6796875 C-133.75859375 286.6796875 -122.20859375 286.6796875 -110.30859375 286.6796875 C-110.30859375 283.3796875 -110.30859375 280.0796875 -110.30859375 276.6796875 C-107.24984778 261.8717585 -98.65590139 248.43443817 -86.13891602 239.98364258 C-72.73245397 231.34821438 -58.47617661 225.79379255 -42.30859375 226.6796875 C-42.30859375 220.0796875 -42.30859375 213.4796875 -42.30859375 206.6796875 C-44.28859375 205.6896875 -44.28859375 205.6896875 -46.30859375 204.6796875 C-62.61409951 190.61423525 -72.00623463 173.63866602 -76.30859375 152.6796875 C-76.30859375 151.6896875 -76.30859375 150.6996875 -76.30859375 149.6796875 C-77.13359375 149.8034375 -77.95859375 149.9271875 -78.80859375 150.0546875 C-83.72828825 149.52757738 -86.90110407 147.2106896 -90.30859375 143.6796875 C-93.58567489 138.46720317 -93.76240858 134.14265264 -93.7421875 128.1796875 C-93.74742935 127.26695068 -93.7526712 126.35421387 -93.7580719 125.41381836 C-93.76447933 123.48405978 -93.76317169 121.55426207 -93.75463867 119.62451172 C-93.74620023 116.7163851 -93.77479117 113.81027303 -93.80664062 110.90234375 C-93.86092492 96.95083068 -92.1186977 84.97032796 -85.55859375 72.4296875 C-85.21352783 71.7598584 -84.86846191 71.0900293 -84.51293945 70.39990234 C-77.41136016 57.02862002 -66.04395732 45.29201517 -52.30859375 38.6796875 C-51.64859375 38.6796875 -50.98859375 38.6796875 -50.30859375 38.6796875 C-50.355 37.64070313 -50.40140625 36.60171875 -50.44921875 35.53125 C-50.78731995 24.82514053 -50.00978364 16.81500339 -42.87109375 8.3046875 C-31.16483924 -4.02029083 -15.62063911 -7.52340986 0 0 Z M112.69140625 320.6796875 C114.21944753 325.26381133 115.79436901 329.12010461 117.94921875 333.390625 C118.25713348 334.00362457 118.56504822 334.61662415 118.8822937 335.24819946 C119.85655688 337.18562408 120.83637542 339.1201751 121.81640625 341.0546875 C122.48214155 342.37611538 123.14750978 343.69772826 123.8125 345.01953125 C125.43456448 348.24173275 127.06161999 351.46138343 128.69140625 354.6796875 C129.36196045 354.69427002 130.03251465 354.70885254 130.72338867 354.72387695 C133.77579447 354.7985705 136.8271321 354.89516049 139.87890625 354.9921875 C141.46155273 355.02602539 141.46155273 355.02602539 143.07617188 355.06054688 C144.60854492 355.1137207 144.60854492 355.1137207 146.171875 355.16796875 C147.57796021 355.20724487 147.57796021 355.20724487 149.01245117 355.24731445 C151.69140625 355.6796875 151.69140625 355.6796875 154.06396484 357.29101562 C157.7177849 359.22215561 160.42135777 358.32575023 164.25 357.41015625 C174.08743708 355.36985915 183.73718044 355.12576947 193.75390625 354.9921875 C195.50718497 354.95889843 197.26044114 354.92439882 199.01367188 354.88867188 C203.239455 354.80512552 207.46519885 354.7377125 211.69140625 354.6796875 C208.50290264 353.04594038 205.32068284 351.81365726 201.94140625 350.6171875 C188.56017539 345.47975065 162.28622044 333.86931587 155.69140625 320.6796875 C141.50140625 320.6796875 127.31140625 320.6796875 112.69140625 320.6796875 Z " fill="#DEEDF1" transform="translate(153.30859375,46.3203125)"/>
<path d="M0 0 C3.86336649 3.47739627 7.43016946 7.2242177 11 11 C11.85980469 11.84433594 12.71960938 12.68867188 13.60546875 13.55859375 C30.59655445 30.8822945 37.29276313 56.17542656 37.3359375 79.7421875 C37.3459227 81.67023727 37.3459227 81.67023727 37.35610962 83.63723755 C37.36799111 86.34168868 37.37179982 89.04601295 37.37060547 91.75048828 C37.37040242 95.17838109 37.39773026 98.60544365 37.43214989 102.03314018 C37.46001803 105.35283135 37.45857406 108.67238145 37.4609375 111.9921875 C37.48249405 113.80842117 37.48249405 113.80842117 37.50448608 115.66134644 C37.43109252 129.5541111 33.30500169 142.10276731 24.0625 152.625 C1.30193145 173.97249556 -35.92228058 173.42129496 -64.875 173.375 C-66.0921167 173.37478851 -67.3092334 173.37457703 -68.56323242 173.37435913 C-98.38091096 173.3225821 -131.75041369 173.17423155 -154.77734375 151.3515625 C-165.94195205 139.53944616 -168.13420126 126.56409298 -168.23828125 110.91796875 C-168.246353 109.74978104 -168.25442474 108.58159332 -168.26274109 107.37800598 C-168.27654169 104.90607162 -168.28728174 102.43411852 -168.29516602 99.9621582 C-168.30663183 97.46535552 -168.32699669 94.96857628 -168.35668945 92.47192383 C-168.75646899 58.79887353 -161.00233933 30.19314621 -136.875 5.375 C-99.62569093 -31.60025588 -40.3384785 -32.26042632 0 0 Z " fill="#25304F" transform="translate(441,177)"/>
<path d="M0 0 C7.91412332 4.93914808 13.60136625 11.66020958 16.27905273 20.65332031 C16.70733451 22.75796139 16.80531824 24.64330436 16.7890625 26.7890625 C16.78422852 27.92021484 16.78422852 27.92021484 16.77929688 29.07421875 C16.76672852 30.24017578 16.76672852 30.24017578 16.75390625 31.4296875 C16.74939453 32.22246094 16.74488281 33.01523438 16.74023438 33.83203125 C16.7284919 35.78128258 16.71055771 37.73049488 16.69140625 39.6796875 C17.42746094 39.95425781 18.16351563 40.22882813 18.921875 40.51171875 C34.59415037 47.12104221 45.9670167 61.26089029 53.12890625 76.2421875 C53.44666016 76.90138184 53.76441406 77.56057617 54.09179688 78.23974609 C59.51985548 90.2310863 60.17202942 101.81418371 60.08251953 114.77246094 C60.06631671 117.57014821 60.08250097 120.36641673 60.1015625 123.1640625 C60.09958195 124.95833649 60.09574219 126.75260961 60.08984375 128.546875 C60.09591644 129.37508759 60.10198914 130.20330017 60.10824585 131.05661011 C60.02961971 137.55578447 58.60001091 141.68231053 54.00390625 146.4921875 C49.93532652 149.17898544 47.49628883 149.43115909 42.69140625 149.6796875 C42.61664063 150.4325 42.541875 151.1853125 42.46484375 151.9609375 C39.93767704 172.37648036 30.65032743 185.88113197 16.69140625 200.6796875 C16.088125 201.32421875 15.48484375 201.96875 14.86328125 202.6328125 C13.51966917 204.02860369 12.11235557 205.36271008 10.69140625 206.6796875 C10.03140625 206.6796875 9.37140625 206.6796875 8.69140625 206.6796875 C8.69140625 213.2796875 8.69140625 219.8796875 8.69140625 226.6796875 C11.99140625 226.6796875 15.29140625 226.6796875 18.69140625 226.6796875 C18.69140625 227.0096875 18.69140625 227.3396875 18.69140625 227.6796875 C17.71240356 227.58675415 17.71240356 227.58675415 16.71362305 227.49194336 C10.9845588 227.4194877 7.41271113 228.37717128 3.10501099 232.30752563 C0.4959086 234.88570269 -2.0099512 237.54592606 -4.49609375 240.2421875 C-5.55165045 241.34798565 -6.60957773 242.45152604 -7.66992188 243.55273438 C-10.24402363 246.23621249 -12.78461883 248.94890763 -15.30859375 251.6796875 C-13.99577814 254.58461762 -12.59384452 256.63759548 -10.32763672 258.87182617 C-9.42692947 259.76746529 -9.42692947 259.76746529 -8.50802612 260.68119812 C-7.86213531 261.3136293 -7.21624451 261.94606049 -6.55078125 262.59765625 C-5.8877298 263.25550613 -5.22467834 263.91335602 -4.54153442 264.59114075 C-2.42691716 266.68796522 -0.30572333 268.77796846 1.81640625 270.8671875 C3.94477954 272.96799118 6.07169654 275.07021828 8.19577026 277.17536926 C9.51737582 278.48466447 10.84164395 279.79127826 12.16873169 281.09501648 C13.69502289 282.60453112 15.19610935 284.13946464 16.69140625 285.6796875 C16.69140625 286.0096875 16.69140625 286.3396875 16.69140625 286.6796875 C-5.41859375 286.6796875 -27.52859375 286.6796875 -50.30859375 286.6796875 C-46.32069872 282.0271433 -42.37015598 277.60198651 -38.03515625 273.30859375 C-37.46654877 272.74140121 -36.89794128 272.17420868 -36.31210327 271.58982849 C-34.52163139 269.80488837 -32.72768891 268.02348494 -30.93359375 266.2421875 C-29.70810052 265.02171811 -28.48283803 263.80101697 -27.2578125 262.58007812 C-24.27739601 259.61059994 -21.29386481 256.64428493 -18.30859375 253.6796875 C-19.84302787 249.8359682 -22.18087098 247.85440443 -25.31640625 245.21484375 C-42.60288821 229.93586059 -42.60288821 229.93586059 -43.76171875 221.55859375 C-43.91687945 216.47432514 -43.31619929 211.65664822 -42.30859375 206.6796875 C-42.91815918 206.39319336 -43.52772461 206.10669922 -44.15576172 205.81152344 C-56.63449295 199.25092036 -67.88192848 181.63988621 -72.30859375 168.6796875 C-76.30859375 155.14173921 -76.30859375 155.14173921 -76.30859375 149.6796875 C-77.13359375 149.8034375 -77.95859375 149.9271875 -78.80859375 150.0546875 C-83.72828825 149.52757738 -86.90110407 147.2106896 -90.30859375 143.6796875 C-93.58567489 138.46720317 -93.76240858 134.14265264 -93.7421875 128.1796875 C-93.74742935 127.26695068 -93.7526712 126.35421387 -93.7580719 125.41381836 C-93.76447933 123.48405978 -93.76317169 121.55426207 -93.75463867 119.62451172 C-93.74620023 116.7163851 -93.77479117 113.81027303 -93.80664062 110.90234375 C-93.86092492 96.95083068 -92.1186977 84.97032796 -85.55859375 72.4296875 C-85.21352783 71.7598584 -84.86846191 71.0900293 -84.51293945 70.39990234 C-77.41136016 57.02862002 -66.04395732 45.29201517 -52.30859375 38.6796875 C-51.64859375 38.6796875 -50.98859375 38.6796875 -50.30859375 38.6796875 C-50.355 37.64070313 -50.40140625 36.60171875 -50.44921875 35.53125 C-50.78731995 24.82514053 -50.00978364 16.81500339 -42.87109375 8.3046875 C-31.16483924 -4.02029083 -15.62063911 -7.52340986 0 0 Z " fill="#F5CFB2" transform="translate(153.30859375,46.3203125)"/>
<path d="M0 0 C2.11020575 -0.00457454 4.22041001 -0.00988383 6.33061218 -0.0158844 C10.73210743 -0.02476594 15.13342077 -0.02244987 19.53491211 -0.01245117 C25.12562942 -0.00097731 30.71571357 -0.02117483 36.30634785 -0.05036831 C40.65888846 -0.06887376 45.01128139 -0.06840937 49.36385155 -0.06273079 C51.42276077 -0.06257927 53.48168112 -0.06848015 55.54055214 -0.08102226 C81.52744544 -0.21705374 105.57504775 5.41118101 125.94921875 22.43359375 C126.61566406 22.954375 127.28210938 23.47515625 127.96875 24.01171875 C143.64350978 36.74939336 152.63052542 56.65907703 154.94921875 76.43359375 C155.08434763 78.78535592 155.16791731 81.14066059 155.19921875 83.49609375 C155.225 84.66269531 155.25078125 85.82929688 155.27734375 87.03125 C154.8312022 91.65731295 153.38402143 94.87813721 150.23046875 98.296875 C149.64265625 98.77511719 149.05484375 99.25335938 148.44921875 99.74609375 C147.86140625 100.23722656 147.27359375 100.72835937 146.66796875 101.234375 C142.46411293 104.16751985 137.75709115 103.57882578 132.85917664 103.57403564 C131.91754616 103.57700677 130.97591569 103.57997789 130.00575095 103.58303905 C126.8367515 103.59174083 123.66778976 103.59323554 120.4987793 103.59472656 C118.23223794 103.59935367 115.96569737 103.60437818 113.69915771 103.60977173 C107.53177411 103.62290763 101.3644014 103.62934295 95.19700599 103.63378239 C91.34606068 103.63671105 87.49511838 103.64081545 83.64417458 103.64528656 C72.98202318 103.65739663 62.31987544 103.6677784 51.6577177 103.67116165 C50.97531424 103.67138122 50.29291078 103.67160078 49.58982842 103.671827 C48.56377453 103.67215442 48.56377453 103.67215442 47.51699227 103.67248845 C46.13087571 103.67293192 44.74475914 103.67337848 43.35864258 103.67382812 C42.32730011 103.67416027 42.32730011 103.67416027 41.27512244 103.67449912 C30.13427799 103.6784471 18.99349894 103.69590119 7.85267975 103.71918765 C-3.58543633 103.74290253 -15.02350489 103.75510558 -26.46164864 103.75652957 C-32.88375028 103.75757895 -39.30575968 103.76351523 -45.72783852 103.78134918 C-51.76803548 103.79779605 -57.80807052 103.80000178 -63.84828186 103.79121017 C-66.06625997 103.790438 -68.28424667 103.79480616 -70.50220299 103.80466843 C-73.52825885 103.81733572 -76.55373669 103.81153932 -79.57978821 103.80108643 C-80.45907386 103.80914283 -81.3383595 103.81719923 -82.24429017 103.82549977 C-88.11504574 103.77801666 -92.44234285 102.83970045 -96.9140625 98.71484375 C-97.39230469 98.12703125 -97.87054688 97.53921875 -98.36328125 96.93359375 C-98.85441406 96.34578125 -99.34554687 95.75796875 -99.8515625 95.15234375 C-104.10958573 89.04963945 -102.51961219 78.87783991 -101.5546875 71.7890625 C-96.93278808 48.52289083 -84.86732967 30.58360137 -65.39550781 17.07885742 C-59.42174473 13.10058902 -53.19417541 9.91231482 -46.61328125 7.05859375 C-45.8877002 6.73697266 -45.16211914 6.41535156 -44.41455078 6.08398438 C-29.99975464 0.12532274 -15.33700148 -0.02944476 0 0 Z " fill="#32C7E2" transform="translate(349.05078125,400.56640625)"/>
<path d="M0 0 C1.22951385 -0.0071553 2.45902771 -0.01431061 3.72579956 -0.02168274 C5.09587072 -0.02452316 6.46594215 -0.02723487 7.83601379 -0.02983093 C9.2732103 -0.03609476 10.71040517 -0.04274149 12.14759827 -0.04974365 C16.05897648 -0.06716352 19.97034246 -0.07770861 23.88174987 -0.08594918 C26.32578414 -0.09109845 28.76981461 -0.09717429 31.21384621 -0.10346031 C38.86141561 -0.12251724 46.50897535 -0.13674594 54.15656394 -0.14507228 C62.98257625 -0.15484022 71.80833746 -0.1811459 80.63426131 -0.22157317 C87.45643742 -0.25174881 94.27854163 -0.26654262 101.10078317 -0.26985329 C105.17501063 -0.27220261 109.24897001 -0.28114697 113.32312584 -0.30631447 C117.15879011 -0.32962501 120.99401038 -0.33381668 124.82972717 -0.32355309 C126.23456615 -0.32305829 127.63942719 -0.32936213 129.04419899 -0.34310913 C142.25728707 -0.46513456 142.25728707 -0.46513456 148.22590637 4.14717102 C151.95111376 8.16647373 153.35248204 11.16552105 153.34616089 16.60803223 C153.34822289 17.97731117 153.34822289 17.97731117 153.35032654 19.37425232 C153.34673126 20.37334625 153.34313599 21.37244019 153.33943176 22.40180969 C153.33957779 23.45563339 153.33972382 24.50945709 153.33987427 25.59521484 C153.33917652 29.08521062 153.33139053 32.5751533 153.32356262 36.06513977 C153.32169795 38.48223847 153.32027428 40.89933755 153.3192749 43.31643677 C153.31545358 49.68358907 153.30562655 56.05071863 153.29457092 62.41786194 C153.28434855 68.91291496 153.27977551 75.40797165 153.2747345 81.9030304 C153.26400396 94.65108699 153.24712388 107.39912779 153.22590637 120.14717102 C152.66194153 119.97588684 152.09797668 119.80460266 151.516922 119.62812805 C148.92051893 118.84080763 146.32322275 118.05647302 143.72590637 117.27217102 C142.83903137 117.00275696 141.95215637 116.7333429 141.03840637 116.45576477 C130.30071405 113.09070535 130.30071405 113.09070535 119.17903137 111.88154602 C118.08590637 111.8789679 116.99278137 111.87638977 115.86653137 111.87373352 C114.188172 111.88533508 114.188172 111.88533508 112.47590637 111.89717102 C111.37246887 111.88943665 110.26903137 111.88170227 109.13215637 111.87373352 C82.24805897 111.93684173 57.10966831 122.95090908 38.16340637 141.89717102 C34.02270877 146.07990392 34.02270877 146.07990392 30.52839661 150.79634094 C27.90645537 153.47332876 26.43037772 153.74633773 22.74278259 153.81625366 C22.03854156 153.80299545 21.33430054 153.78973724 20.60871887 153.77607727 C19.87394318 153.77848923 19.13916748 153.78090118 18.38212585 153.78338623 C16.83048601 153.78240862 15.27881092 153.76903502 13.72737122 153.74409485 C11.36498495 153.70987495 9.00636128 153.72341258 6.64387512 153.74287415 C5.13214058 153.7359723 3.62041565 153.72629684 2.10871887 153.71357727 C1.40852631 153.71853714 0.70833374 153.72349701 -0.01307678 153.72860718 C-5.04053669 153.60930316 -7.8790576 152.26111694 -11.77409363 149.14717102 C-16.11545303 144.44403167 -18.015693 140.21580147 -18.04824829 133.81628418 C-18.05822342 132.76078873 -18.06819855 131.70529327 -18.07847595 130.61781311 C-18.07914063 129.47016479 -18.0798053 128.32251648 -18.08049011 127.14009094 C-18.08881363 125.92326126 -18.09713715 124.70643158 -18.10571289 123.45272827 C-18.1256621 120.12194443 -18.13645027 116.79141039 -18.14153934 113.46058822 C-18.14518879 111.37683454 -18.15143191 109.29310469 -18.15854073 107.20936012 C-18.18301907 99.93170242 -18.19608349 92.65411582 -18.19963074 85.37641907 C-18.2032642 78.60584067 -18.23314962 71.83571608 -18.27503532 65.06527632 C-18.30979257 59.24172842 -18.32518011 53.41833052 -18.32587677 47.59467965 C-18.32666779 44.12122016 -18.33532432 40.64822322 -18.36387444 37.17487144 C-18.39503648 33.29721599 -18.3859694 29.42020669 -18.37345886 25.54243469 C-18.38829315 24.40085907 -18.40312744 23.25928345 -18.41841125 22.08311462 C-18.35488703 15.16080888 -17.35241773 10.47008249 -12.77409363 5.14717102 C-8.33465089 1.1206997 -5.92749704 0.02360564 0 0 Z " fill="#31C6E1" transform="translate(264.7740936279297,42.85282897949219)"/>
<path d="M0 0 C7.91412332 4.93914808 13.60136625 11.66020958 16.27905273 20.65332031 C16.70733451 22.75796139 16.80531824 24.64330436 16.7890625 26.7890625 C16.78422852 27.92021484 16.78422852 27.92021484 16.77929688 29.07421875 C16.76672852 30.24017578 16.76672852 30.24017578 16.75390625 31.4296875 C16.74939453 32.22246094 16.74488281 33.01523438 16.74023438 33.83203125 C16.7284919 35.78128258 16.71055771 37.73049488 16.69140625 39.6796875 C17.42746094 39.95425781 18.16351563 40.22882813 18.921875 40.51171875 C34.59415037 47.12104221 45.9670167 61.26089029 53.12890625 76.2421875 C53.44666016 76.90138184 53.76441406 77.56057617 54.09179688 78.23974609 C59.24001977 89.61289012 60.10597274 100.64524758 59.87890625 112.9296875 C59.86381407 114.36847539 59.85013377 115.8072788 59.83789062 117.24609375 C59.80528543 120.72428835 59.75376114 124.20188375 59.69140625 127.6796875 C59.08167969 126.89980469 58.47195312 126.11992187 57.84375 125.31640625 C54.37754121 121.07014321 50.8922343 118.39854273 45.69140625 116.6796875 C43.48775156 116.48924821 41.27732273 116.36956767 39.06640625 116.3046875 C26.77495596 115.54690739 17.58548981 110.74704724 8.31640625 102.8671875 C4.56514759 99.74113861 1.19613771 99.15999208 -3.66796875 99.19921875 C-8.04636591 99.99587977 -11.36081496 102.47063895 -15.09375 104.80078125 C-31.6129008 114.45535177 -51.4141944 115.02115798 -70.02734375 115.8581543 C-71.27 115.92301025 -72.51265625 115.98786621 -73.79296875 116.0546875 C-74.90381836 116.10367188 -76.01466797 116.15265625 -77.15917969 116.203125 C-82.02583566 116.93953682 -86.07789122 118.75090432 -89.05859375 122.7421875 C-91.30859375 125.6796875 -91.30859375 125.6796875 -93.30859375 127.6796875 C-93.40906851 123.23638448 -93.48079988 118.7937201 -93.52832031 114.34960938 C-93.54817351 112.84460911 -93.57526565 111.33968315 -93.61035156 109.83496094 C-93.9151565 96.40561409 -91.86746158 84.49005174 -85.55859375 72.4296875 C-85.21352783 71.7598584 -84.86846191 71.0900293 -84.51293945 70.39990234 C-77.41136016 57.02862002 -66.04395732 45.29201517 -52.30859375 38.6796875 C-51.64859375 38.6796875 -50.98859375 38.6796875 -50.30859375 38.6796875 C-50.355 37.64070313 -50.40140625 36.60171875 -50.44921875 35.53125 C-50.78731995 24.82514053 -50.00978364 16.81500339 -42.87109375 8.3046875 C-31.16483924 -4.02029083 -15.62063911 -7.52340986 0 0 Z " fill="#E1B55D" transform="translate(153.30859375,46.3203125)"/>
<path d="M0 0 C1.08796875 0.47050781 2.1759375 0.94101562 3.296875 1.42578125 C26.83655978 11.47038491 50.52338864 13.52873999 75.97021484 13.39111328 C79.49746341 13.37501158 83.02356668 13.39107965 86.55078125 13.41015625 C107.44769904 13.43090321 128.25828024 12.24016035 147.875 4.4375 C148.92429687 4.02371094 149.97359375 3.60992187 151.0546875 3.18359375 C152.02664063 2.79300781 152.99859375 2.40242188 154 2 C155.42699219 1.42958984 155.42699219 1.42958984 156.8828125 0.84765625 C157.93082031 0.42806641 157.93082031 0.42806641 159 0 C158.44818694 12.71929114 154.12162141 23.25051999 145.5625 32.6875 C144.716875 33.450625 143.87125 34.21375 143 35 C142.05125 35.886875 141.1025 36.77375 140.125 37.6875 C120.662305 54.08156274 97.4124341 67.20619391 71.45068359 65.2734375 C52.17442476 63.12266943 34.01186306 49.39835176 19 38 C18.15405273 37.36118896 18.15405273 37.36118896 17.29101562 36.70947266 C14.01025182 34.12178534 11.95600139 31.67261157 10 28 C9.51660156 27.30261719 9.03320312 26.60523438 8.53515625 25.88671875 C3.69389872 18.65693628 0 8.85396671 0 0 Z " fill="#F5CFB2" transform="translate(296,336)"/>
<path d="M0 0 C1.87384872 -0.00856522 1.87384872 -0.00856522 3.78555298 -0.01730347 C5.1776885 -0.01854889 6.56982413 -0.01967397 7.96195984 -0.02069092 C9.42210516 -0.02531817 10.88224927 -0.0303427 12.34239197 -0.03573608 C16.31562257 -0.04887184 20.28883627 -0.05530743 24.2620852 -0.05974674 C26.74362622 -0.06267582 29.22516259 -0.06678033 31.70670128 -0.07125092 C39.46853181 -0.08492947 47.23035177 -0.09459415 54.99219352 -0.09845281 C63.95628022 -0.1029334 72.92021443 -0.12047979 81.88425475 -0.1494534 C88.81000911 -0.17106275 95.73572055 -0.1811567 102.66150826 -0.18249393 C106.79933446 -0.18354257 110.93701738 -0.18946285 115.07480812 -0.20731354 C118.96786623 -0.22378119 122.86067316 -0.22595619 126.75375366 -0.21717453 C128.18200032 -0.21640343 129.61026041 -0.22075658 131.03847313 -0.23063278 C132.98963773 -0.24333296 134.94090304 -0.23569078 136.89208984 -0.22705078 C138.5294458 -0.22925062 138.5294458 -0.22925062 140.19987965 -0.2314949 C143.54455068 0.19212049 145.46304114 1.11031835 148.13652039 3.14044189 C148.13652039 3.80044189 148.13652039 4.46044189 148.13652039 5.14044189 C147.03695007 5.56454346 145.93737976 5.98864502 144.80448914 6.42559814 C131.95429702 11.48002646 116.0990537 18.13603267 107.9279232 29.87706566 C105.92352373 32.70918219 104.3455298 34.78572356 100.93861771 35.78529739 C98.2510941 36.02287811 95.64118955 36.04094765 92.94364929 35.98272705 C91.93149857 35.98856812 90.91934784 35.99440918 89.87652588 36.00042725 C86.5377238 36.01082668 83.20161146 35.97101129 79.86308289 35.92950439 C77.53670205 35.92405945 75.21031358 35.92128073 72.88392639 35.92105103 C68.00973488 35.91332418 63.13644485 35.88236232 58.26249695 35.83331299 C52.0260024 35.77111979 45.79037345 35.75247463 39.5535984 35.74952126 C34.74931934 35.74481102 29.94522301 35.72399655 25.14101791 35.69764328 C22.84220742 35.68561078 20.54337704 35.67689237 18.24454117 35.6715889 C15.02541683 35.66032766 11.80709899 35.62912624 8.58818054 35.59210205 C7.17272194 35.59178482 7.17272194 35.59178482 5.72866821 35.59146118 C-0.76259448 35.48710918 -6.78986796 34.7591357 -11.92207336 30.38653564 C-12.37711243 29.78969971 -12.83215149 29.19286377 -13.30097961 28.57794189 C-13.77406555 27.97852783 -14.24715149 27.37911377 -14.73457336 26.76153564 C-17.99107177 22.085249 -17.38133051 16.63541532 -16.86347961 11.14044189 C-13.28020997 3.70847523 -8.07110285 0.02201755 0 0 Z " fill="#DEEDF1" transform="translate(161.8634796142578,400.85955810546875)"/>
<path d="M0 0 C9.04023556 -0.18547847 18.07981508 -0.32756263 27.12153912 -0.41449738 C31.3202357 -0.45622593 35.5176295 -0.51280443 39.71557617 -0.60351562 C43.76813831 -0.69053578 47.81944894 -0.7382917 51.87287331 -0.75901794 C53.4179944 -0.77378412 54.96304798 -0.80262226 56.50763512 -0.84584045 C68.57628835 -1.17005082 68.57628835 -1.17005082 71.97688293 1.62466431 C73.31445797 3.7097684 74.1749988 5.66927326 75 8 C75.55083252 9.01626465 76.10166504 10.0325293 76.66918945 11.07958984 C77.14573975 12.03043457 77.62229004 12.9812793 78.11328125 13.9609375 C78.63857422 15.00894531 79.16386719 16.05695313 79.70507812 17.13671875 C80.23552734 18.20535156 80.76597656 19.27398437 81.3125 20.375 C81.86228516 21.46683594 82.41207031 22.55867188 82.97851562 23.68359375 C83.75678711 25.24400391 83.75678711 25.24400391 84.55078125 26.8359375 C85.02169189 27.78001465 85.49260254 28.7240918 85.9777832 29.69677734 C87 32 87 32 87 34 C53.01 34 19.02 34 -16 34 C-14.47195872 29.41587617 -12.89703724 25.55958289 -10.7421875 21.2890625 C-10.43427277 20.67606293 -10.12635803 20.06306335 -9.80911255 19.43148804 C-8.83484937 17.49406342 -7.85503083 15.5595124 -6.875 13.625 C-6.2092647 12.30357212 -5.54389647 10.98195924 -4.87890625 9.66015625 C-3.25684177 6.43795475 -1.62978626 3.21830407 0 0 Z " fill="#C7DCE0" transform="translate(195,367)"/>
<path d="M0 0 C0.78503906 0.48210937 1.57007812 0.96421875 2.37890625 1.4609375 C12.9974982 7.84512162 22.51934857 11.2807809 35.00390625 8.27734375 C41.07977156 6.19008543 45.36216197 3.52364877 51 0 C51 6.27 51 12.54 51 19 C54.3 19 57.6 19 61 19 C61 19.33 61 19.66 61 20 C60.34733154 19.93804443 59.69466309 19.87608887 59.0222168 19.81225586 C53.29315255 19.7398002 49.72130488 20.69748378 45.41360474 24.62783813 C42.80450235 27.20601519 40.29864255 29.86623856 37.8125 32.5625 C36.7569433 33.66829815 35.69901602 34.77183854 34.63867188 35.87304688 C32.06457012 38.55652499 29.52397492 41.26922013 27 44 C28.31281561 46.90493012 29.71474923 48.95790798 31.98095703 51.19213867 C32.58142853 51.78923141 33.18190002 52.38632416 33.80056763 53.00151062 C34.44645844 53.6339418 35.09234924 54.26637299 35.7578125 54.91796875 C36.42086395 55.57581863 37.08391541 56.23366852 37.76705933 56.91145325 C39.88167659 59.00827772 42.00287042 61.09828096 44.125 63.1875 C46.25337329 65.28830368 48.38029029 67.39053078 50.50436401 69.49568176 C51.82596957 70.80497697 53.1502377 72.11159076 54.47732544 73.41532898 C56.00361664 74.92484362 57.5047031 76.45977714 59 78 C59 78.33 59 78.66 59 79 C36.89 79 14.78 79 -8 79 C-4.01210497 74.3474558 -0.06156223 69.92229901 4.2734375 65.62890625 C4.84204498 65.06171371 5.41065247 64.49452118 5.99649048 63.91014099 C7.78696236 62.12520087 9.58090484 60.34379744 11.375 58.5625 C12.60049323 57.34203061 13.82575572 56.12132947 15.05078125 54.90039062 C18.03119774 51.93091244 21.01472894 48.96459743 24 46 C22.46356069 42.15617173 20.11801448 40.15322184 16.9921875 37.5 C-0.2741321 22.27499931 -0.2741321 22.27499931 -1.453125 14.1015625 C-1.60772801 9.26916244 -1.01325409 4.7182842 0 0 Z " fill="#E7BEA1" transform="translate(111,254)"/>
<path d="M0 0 C5.00255932 -0.64013147 7.63479638 -0.12192544 11.76782227 2.89282227 C15.29901349 6.07748438 18.51288931 9.54881887 21.7331543 13.04248047 C22.88483756 14.24940695 24.03911542 15.45386322 25.19604492 16.65576172 C28.01003774 19.59030818 30.78658821 22.55627192 33.5456543 25.54248047 C32.23188513 28.44791919 30.82508938 30.50909106 28.56469727 32.75048828 C27.96422577 33.35080872 27.36375427 33.95112915 26.74508667 34.56964111 C26.09919586 35.20520935 25.45330505 35.84077759 24.7878418 36.49560547 C24.12479034 37.15582703 23.46173889 37.81604858 22.77859497 38.49627686 C20.66393598 40.59975871 18.54242217 42.69617189 16.4206543 44.79248047 C14.98399873 46.21910308 13.54779532 47.64618118 12.11206055 49.07373047 C8.59514625 52.56861708 5.07206883 56.05718109 1.5456543 59.54248047 C-2.44111815 58.21355632 -2.83218001 56.62026726 -4.8605957 52.98779297 C-5.18213623 52.4184906 -5.50367676 51.84918823 -5.83496094 51.26263428 C-6.88334542 49.40226202 -7.91885971 47.53505768 -8.9543457 45.66748047 C-9.67020563 44.39107563 -10.38700682 43.11519825 -11.10473633 41.83984375 C-12.18699382 39.91639035 -13.26854141 37.99257615 -14.34655762 36.06674194 C-17.92555206 29.67651569 -21.62044782 23.35532282 -25.35473633 17.0546875 C-28.4543457 11.76052576 -28.4543457 11.76052576 -28.4543457 9.54248047 C-19.26681073 4.88185982 -9.99299792 2.20873783 0 0 Z " fill="#FEFDFD" transform="translate(102.454345703125,272.45751953125)"/>
<path d="M0 0 C7.91412332 4.93914808 13.60136625 11.66020958 16.27905273 20.65332031 C16.70733451 22.75796139 16.80531824 24.64330436 16.7890625 26.7890625 C16.78422852 27.92021484 16.78422852 27.92021484 16.77929688 29.07421875 C16.76672852 30.24017578 16.76672852 30.24017578 16.75390625 31.4296875 C16.74939453 32.22246094 16.74488281 33.01523438 16.74023438 33.83203125 C16.7284919 35.78128258 16.71055771 37.73049488 16.69140625 39.6796875 C15.98757812 39.35355469 15.28375 39.02742188 14.55859375 38.69140625 C-4.23914282 30.37230351 -23.87406818 28.79470747 -43.30859375 35.6796875 C-45.66192539 36.64045667 -47.98392881 37.65010874 -50.30859375 38.6796875 C-50.83233992 26.95359274 -50.77472922 17.72692541 -42.87109375 8.3046875 C-31.16483924 -4.02029083 -15.62063911 -7.52340986 0 0 Z " fill="#D2A453" transform="translate(153.30859375,46.3203125)"/>
<path d="M0 0 C3.8203125 0.6015625 3.8203125 0.6015625 7.4375 1.625 C9.19707031 2.03878906 9.19707031 2.03878906 10.9921875 2.4609375 C17.39185039 4.19017666 23.4803709 6.73109749 29.4375 9.625 C28.16791428 12.92752303 26.7599441 16.04255689 25.07421875 19.15234375 C24.60564453 20.01714355 24.13707031 20.88194336 23.65429688 21.77294922 C20.93433191 26.7343668 18.19737757 31.68566156 15.4375 36.625 C14.56085693 38.19870361 14.56085693 38.19870361 13.66650391 39.80419922 C11.94189382 42.88036375 10.19408335 45.94200176 8.4375 49 C7.89826904 49.96284912 7.35903809 50.92569824 6.8034668 51.91772461 C6.29082275 52.79823486 5.77817871 53.67874512 5.25 54.5859375 C4.57904297 55.75842041 4.57904297 55.75842041 3.89453125 56.95458984 C3.41371094 57.5058252 2.93289062 58.05706055 2.4375 58.625 C-1.5625 58.625 -1.5625 58.625 -3.22039795 57.44812012 C-3.76222717 56.89740845 -4.3040564 56.34669678 -4.86230469 55.77929688 C-5.48264587 55.15865356 -6.10298706 54.53801025 -6.74212646 53.89855957 C-7.39956848 53.22047241 -8.0570105 52.54238525 -8.734375 51.84375 C-9.4167926 51.15567261 -10.09921021 50.46759521 -10.80230713 49.75866699 C-12.98192309 47.55664254 -15.14723174 45.34112543 -17.3125 43.125 C-18.78683958 41.63060138 -20.26208918 40.13709998 -21.73828125 38.64453125 C-25.35699998 34.98168561 -28.96294646 31.30667744 -32.5625 27.625 C-27.75721822 17.49583385 -12.19725326 -0.7308303 0 0 Z " fill="#FEFDFD" transform="translate(169.5625,272.375)"/>
<path d="M0 0 C3.21504129 2.94836189 5.2436199 5.87287419 7.3203125 9.69921875 C7.93382568 10.8188501 8.54733887 11.93848145 9.17944336 13.09204102 C9.82800973 14.29050164 10.47652774 15.48898845 11.125 16.6875 C12.45860375 19.12960344 13.79722236 21.56893715 15.13671875 24.0078125 C15.46638138 24.6092659 15.79604401 25.2107193 16.13569641 25.83039856 C19.35518109 31.68588348 22.73561714 37.43918602 26.20556641 43.14916992 C29 47.79553228 29 47.79553228 29 50 C9.53 50 -9.94 50 -30 50 C-30 33.98203115 -24.50438758 21.03519048 -13.5234375 9.3046875 C-9.41691783 5.55415096 -4.8295834 2.72623212 0 0 Z " fill="#F08268" transform="translate(73,283)"/>
<path d="M0 0 C10.89859557 3.87161477 19.39859666 13.27738042 24.7578125 23.28125 C29.27720748 32.80036213 31 39.20304407 31 50 C11.53 50 -7.94 50 -28 50 C-26.52367432 46.3091858 -25.05718046 43.14136833 -23.12890625 39.7109375 C-22.55938232 38.69515625 -21.9898584 37.679375 -21.40307617 36.6328125 C-20.79568604 35.55773437 -20.1882959 34.48265625 -19.5625 33.375 C-18.63111206 31.71984375 -18.63111206 31.71984375 -17.6809082 30.03125 C-13.71696917 23.0013845 -9.72267537 15.98922058 -5.6875 9 C-5.22609619 8.19997559 -4.76469238 7.39995117 -4.28930664 6.57568359 C-1.12490289 1.12490289 -1.12490289 1.12490289 0 0 Z " fill="#F08268" transform="translate(199,283)"/>
<path d="M0 0 C0.9481105 -0.0049649 1.89622101 -0.00992981 2.87306213 -0.01504517 C6.01979286 -0.02968895 9.16647317 -0.03647271 12.31323242 -0.04199219 C14.49558006 -0.0477421 16.67792767 -0.05349985 18.86027527 -0.05926514 C23.44103227 -0.06978163 28.02177168 -0.07561996 32.60253906 -0.07910156 C38.47390383 -0.08458569 44.34503661 -0.10860938 50.21632862 -0.13707352 C54.72617777 -0.15569273 59.23597099 -0.16090513 63.74585533 -0.16243744 C65.91041011 -0.16546643 68.07496384 -0.17350323 70.23948097 -0.18662262 C73.26790655 -0.20366686 76.29576474 -0.20180663 79.32421875 -0.1953125 C80.21947266 -0.20452728 81.11472656 -0.21374207 82.03710938 -0.22323608 C86.78815548 -0.19130239 90.01645775 0.0320933 93.85620117 3.16113281 C95.4209135 6.29055746 95.55322075 9.77195505 94.85620117 13.16113281 C93.43920898 15.25817871 93.43920898 15.25817871 90.85620117 17.16113281 C87.61068413 17.7697187 84.39628568 17.70729405 81.10229492 17.67871094 C80.11327179 17.68572021 79.12424866 17.69272949 78.10525513 17.69995117 C74.83445194 17.71756321 71.56451323 17.70589661 68.29370117 17.69238281 C66.02213373 17.69507679 63.7505674 17.69895842 61.47900391 17.70397949 C56.7175804 17.70987891 51.95645699 17.701297 47.19506836 17.68261719 C41.0881105 17.65982775 34.98185576 17.67294841 28.87492371 17.69690704 C24.18406871 17.71135282 19.49338075 17.70676456 14.80252075 17.69639587 C12.55062782 17.69372523 10.29871978 17.69701016 8.04684448 17.70631409 C4.90085612 17.71645923 1.75601054 17.70100618 -1.38989258 17.67871094 C-2.32300262 17.68680786 -3.25611267 17.69490479 -4.21749878 17.70324707 C-10.52350313 17.62034443 -10.52350313 17.62034443 -13.72021484 15.25378418 C-15.70020193 12.34322693 -15.70806882 10.48855536 -15.54223633 7.06347656 C-14.93484306 4.16347143 -13.47880091 2.87804611 -11.14379883 1.16113281 C-7.71421187 -0.55366067 -3.77460616 0.00468141 0 0 Z " fill="#2C9FA8" transform="translate(297.143798828125,67.8388671875)"/>
<path d="M0 0 C4.74042214 3.95952624 9.23120477 8.08247977 13.58984375 12.45703125 C14.47392662 13.33967903 14.47392662 13.33967903 15.37586975 14.24015808 C16.60638107 15.46999481 17.83565434 16.70107144 19.0637207 17.93334961 C20.95344748 19.8284932 22.84853271 21.71816277 24.74414062 23.60742188 C25.94302962 24.80697065 27.14160892 26.00682903 28.33984375 27.20703125 C28.90847641 27.77363968 29.47710907 28.34024811 30.06297302 28.92402649 C34 32.88501282 34 32.88501282 34 34 C11.89 34 -10.22 34 -33 34 C-28.9456823 29.26996268 -24.91530449 24.77699896 -20.5078125 20.41015625 C-19.91700897 19.82076767 -19.32620544 19.23137909 -18.71749878 18.62413025 C-16.85569596 16.76786273 -14.99042255 14.91512915 -13.125 13.0625 C-11.85132989 11.79385328 -10.57789029 10.5249751 -9.3046875 9.25585938 C-6.20577957 6.16789446 -3.10375699 3.08309071 0 0 Z " fill="#F08167" transform="translate(136,299)"/>
<path d="M0 0 C1.2684375 -0.00336868 2.536875 -0.00673737 3.84375 -0.01020813 C6.52468479 -0.00990921 9.20238954 0.00223115 11.8828125 0.03442383 C15.30981173 0.07420877 18.73455008 0.06490214 22.16162109 0.04018879 C25.44120238 0.02255648 28.72045339 0.04399995 32 0.0625 C33.2271875 0.0555159 34.454375 0.0485318 35.71875 0.04133606 C45.17645421 0.19822392 45.17645421 0.19822392 48.28125 3.08276367 C50.53394727 6.59396355 50.596239 8.6625756 50 12.76171875 C48.23984869 15.94675445 47.50109084 16.59468847 44 17.76171875 C42.20164862 17.86960909 40.39963721 17.92049603 38.59814453 17.9387207 C37.49334747 17.95155594 36.38855042 17.96439117 35.25027466 17.97761536 C34.05651215 17.98500229 32.86274963 17.99238922 31.6328125 18 C30.40593719 18.00807175 29.17906189 18.01614349 27.91500854 18.02445984 C25.3175396 18.03829801 22.7200525 18.04902135 20.12255859 18.05688477 C16.14776308 18.07412005 12.17379436 18.11801312 8.19921875 18.16210938 C5.67708946 18.17223427 3.15495309 18.180751 0.6328125 18.1875 C-0.55690155 18.20500809 -1.7466156 18.22251617 -2.97238159 18.24055481 C-11.18937137 18.2189192 -11.18937137 18.2189192 -15.21923828 15.94604492 C-17.77557763 12.81037613 -18.13895722 10.79147818 -18 6.76171875 C-13.88654048 -0.95161022 -8.07426342 -0.10055061 0 0 Z " fill="#2C9FA8" transform="translate(342,110.23828125)"/>
<path d="M0 0 C1.14204391 -0.00087616 1.14204391 -0.00087616 2.30715942 -0.00177002 C4.81819604 0.00101184 7.32803853 0.03210704 9.83886719 0.06347656 C11.58192293 0.07093863 13.32498707 0.07663172 15.0680542 0.08062744 C19.65168495 0.09588656 24.23480721 0.13517057 28.8182373 0.17944336 C33.49691896 0.22039019 38.17568293 0.23863719 42.85449219 0.25878906 C52.0317987 0.3016647 61.20872813 0.36991928 70.38574219 0.45410156 C70.38574219 0.78410156 70.38574219 1.11410156 70.38574219 1.45410156 C69.6703125 1.55207031 68.95488281 1.65003906 68.21777344 1.75097656 C54.74791785 3.77232617 43.28529797 8.12258207 31.3293457 14.44262695 C30.68795654 14.77641357 30.04656738 15.1102002 29.38574219 15.45410156 C28.45947021 15.98318115 27.53319824 16.51226074 26.57885742 17.05737305 C20.8891816 19.546144 14.9881698 18.68904201 8.88574219 18.45410156 C6.92701172 18.42509766 6.92701172 18.42509766 4.92871094 18.39550781 C-5.73812943 18.0359514 -5.73812943 18.0359514 -9.48144531 15.14550781 C-12.39811846 11.46494408 -12.39811846 11.46494408 -12.23925781 8.39160156 C-11.03681036 0.81618259 -7.01377836 -0.14107579 0 0 Z " fill="#2C9EA8" transform="translate(293.6142578125,153.5458984375)"/>
<path d="M0 0 C4.63309353 2.26618705 4.63309353 2.26618705 6 5 C6.5801105 11.26519337 6.5801105 11.26519337 4.125 14.375 C-1.15602731 18.41343265 -7.6153137 17.6421592 -14 17 C-17.375 14.9375 -17.375 14.9375 -19 12 C-19.75123045 7.79310949 -19.44098839 5.79717131 -17.375 2.0625 C-11.99082715 -1.22782785 -6.15045455 -0.8542298 0 0 Z " fill="#2C9FA8" transform="translate(301,111)"/>
</svg>
